<svg width="172" height="33" viewBox="0 0 172 33" fill="none" xmlns="http://www.w3.org/2000/svg">
<path d="M42.8946 25.0409L41.2108 25.7677L44.2201 15.5984H47.4495L42.2804 31.8733H39.1227L41.0163 25.9519L42.48 27.129H38.9692L35.4685 15.5933H38.7235L41.2159 25.0409H42.8997H42.8946Z" fill="white"/>
<path d="M55.28 27.6393L55.3926 24.6914L55.3056 24.4201V20.6482L55.2954 20.1057C55.2954 19.3176 55.0804 18.7444 54.6454 18.3759C54.2206 18.0074 53.5194 17.8232 52.547 17.8232C51.7179 17.8232 50.94 17.9358 50.2133 18.1558C49.4917 18.3708 48.8263 18.6164 48.2122 18.903L48.4834 16.3953C48.8417 16.2059 49.2511 16.0319 49.7117 15.8681C50.1775 15.6941 50.6995 15.5559 51.2727 15.4484C51.8459 15.341 52.4652 15.2898 53.1254 15.2898C54.108 15.2898 54.9371 15.4075 55.6178 15.648C56.2985 15.8784 56.8358 16.211 57.2402 16.6409C57.6496 17.0759 57.9464 17.5929 58.1256 18.2019C58.3047 18.8007 58.3968 19.4609 58.3968 20.1927V27.6342H55.2902L55.28 27.6393ZM51.3392 27.9208C50.1416 27.9208 49.2306 27.6239 48.6011 27.0252C47.9768 26.4264 47.6697 25.5768 47.6697 24.4713V24.1284C47.6697 22.9564 48.0279 22.0915 48.7496 21.5388C49.4712 20.9758 50.6125 20.5868 52.1786 20.3719L55.5922 19.9061L55.7764 21.9328L52.634 22.3883C51.9482 22.4805 51.4569 22.6442 51.1601 22.8796C50.8735 23.1151 50.7302 23.4631 50.7302 23.9237V24.0465C50.7302 24.4969 50.8684 24.85 51.1499 25.1008C51.4365 25.3465 51.8817 25.4693 52.4907 25.4693C53.0332 25.4693 53.4939 25.3823 53.8777 25.2134C54.2615 25.0394 54.5789 24.8142 54.8245 24.5378C55.0804 24.2512 55.2595 23.9339 55.367 23.5808L55.8071 25.1418H55.2646C55.1316 25.6587 54.9217 26.1295 54.6249 26.5543C54.3383 26.974 53.934 27.3066 53.4068 27.5625C52.8848 27.8082 52.1939 27.931 51.3443 27.931L51.3392 27.9208Z" fill="white"/>
<path d="M66.5086 25.0409L64.8248 25.7677L67.8341 15.5984H71.0635L65.8945 31.8733H62.7367L64.6303 25.9519L66.094 27.129H62.5832L59.0825 15.5933H62.3375L64.8299 25.0409H66.5137H66.5086Z" fill="white"/>
<path d="M84.5237 27.6398V20.4031C84.5237 19.8964 84.4521 19.4563 84.3139 19.0878C84.1808 18.7193 83.9607 18.4327 83.6486 18.228C83.3364 18.0233 82.9116 17.9209 82.3691 17.9209C81.8931 17.9209 81.4786 18.0079 81.1152 18.1768C80.7621 18.3508 80.4703 18.5811 80.2451 18.878C80.0251 19.1646 79.8562 19.4921 79.7436 19.8606L79.2523 18.141H79.8408C79.9739 17.6087 80.1888 17.1277 80.4908 16.7029C80.803 16.2781 81.2175 15.9403 81.7447 15.6946C82.277 15.4387 82.9423 15.3159 83.7356 15.3159C84.6619 15.3159 85.4091 15.4899 85.9823 15.8431C86.5555 16.186 86.9752 16.7029 87.2464 17.3887C87.5228 18.0745 87.6661 18.9292 87.6661 19.9425V27.6296H84.5237V27.6398ZM76.6729 27.6398V15.5923H79.8152L79.6924 18.53L79.8152 18.7859V27.6398H76.6729Z" fill="white"/>
<path d="M95.5937 27.9356C93.5312 27.9356 91.9958 27.4596 90.9876 26.5128C89.9793 25.5609 89.4778 24.1893 89.4778 22.3878V20.8166C89.4778 19.0305 89.9486 17.6589 90.8903 16.7018C91.832 15.7448 93.1985 15.2637 94.9949 15.2637C96.2078 15.2637 97.2161 15.4786 98.0298 15.9034C98.8436 16.3282 99.4475 16.9372 99.8467 17.7203C100.256 18.4982 100.461 19.4296 100.461 20.5198V20.9497C100.461 21.2465 100.445 21.5485 100.41 21.8607C100.384 22.1626 100.348 22.4492 100.297 22.7205H97.4464C97.472 22.2701 97.4822 21.8453 97.4822 21.441C97.4924 21.0316 97.4924 20.6631 97.4924 20.3355C97.4924 19.7725 97.4003 19.2915 97.2212 18.8974C97.042 18.4982 96.7657 18.1911 96.3972 17.9864C96.0287 17.7817 95.5579 17.6793 94.9847 17.6793C94.1402 17.6793 93.5209 17.9147 93.1166 18.3805C92.7174 18.8462 92.5127 19.5115 92.5127 20.3713V21.487L92.5229 21.8453V22.7921C92.5229 23.1708 92.5792 23.5189 92.697 23.8362C92.8198 24.1535 93.0194 24.435 93.3009 24.6704C93.5772 24.9007 93.9457 25.0798 94.4063 25.2129C94.8721 25.3459 95.4555 25.4074 96.1515 25.4074C96.9039 25.4074 97.6204 25.3255 98.3011 25.1617C98.9869 24.9877 99.6419 24.7625 100.256 24.4759L99.9848 26.9581C99.4372 27.26 98.7873 27.5006 98.0452 27.6695C97.3082 27.8486 96.4893 27.9407 95.5886 27.9407L95.5937 27.9356ZM91.1462 22.7153V20.6272H99.6573V22.7153H91.1462Z" fill="white"/>
<path d="M107.043 27.9008C106.019 27.9008 105.2 27.7473 104.586 27.4454C103.982 27.1332 103.542 26.6674 103.271 26.043C102.999 25.4187 102.866 24.6561 102.866 23.7451V16.7182H105.988V23.2794C105.988 23.9345 106.137 24.4156 106.428 24.7277C106.73 25.0297 107.257 25.1832 108.015 25.1832C108.455 25.1832 108.885 25.1372 109.294 25.0502C109.704 24.9529 110.083 24.825 110.425 24.6714L110.154 27.3021C109.745 27.4914 109.274 27.6398 108.742 27.7422C108.22 27.8497 107.652 27.9008 107.048 27.9008H107.043ZM101.121 18.1717V15.6895H110.308L110.036 18.1717H101.121V18.1717ZM102.902 15.9249L102.892 12.7314L106.024 12.4141L105.901 15.9249H102.902V15.9249Z" fill="white"/>
<path d="M113.44 27.6408L110.835 15.5933H114.054L115.825 25.4094H116.045L117.836 15.9003H121.889L123.696 25.4094H123.906L125.697 15.5933H128.88L126.275 27.6408H121.705L120.231 19.6671L119.96 18.1829H119.776L119.504 19.6671L118.02 27.6408H113.44V27.6408Z" fill="white"/>
<path d="M135.298 27.9726C133.43 27.9726 132.013 27.4916 131.05 26.5345C130.093 25.5775 129.612 24.211 129.612 22.4453V20.8127C129.612 19.0368 130.093 17.6703 131.05 16.7081C132.018 15.7408 133.435 15.2598 135.298 15.2598C137.161 15.2598 138.564 15.7408 139.526 16.7081C140.483 17.6652 140.964 19.0317 140.964 20.8127V22.4453C140.964 24.2161 140.483 25.5775 139.526 26.5345C138.574 27.4916 137.166 27.9726 135.298 27.9726V27.9726ZM135.298 25.4546C136.117 25.4546 136.742 25.209 137.166 24.7177C137.601 24.2263 137.816 23.5201 137.816 22.604V20.6489C137.816 19.7175 137.601 19.001 137.166 18.5096C136.742 18.0081 136.117 17.7624 135.298 17.7624C134.479 17.7624 133.84 18.0132 133.405 18.5096C132.98 19.001 132.765 19.7123 132.765 20.6489V22.604C132.765 23.5201 132.98 24.2263 133.405 24.7177C133.84 25.209 134.469 25.4546 135.298 25.4546Z" fill="white"/>
<path d="M145.949 20.6387L145.15 18.5404H145.913C146.133 17.568 146.537 16.8003 147.116 16.2424C147.699 15.6846 148.503 15.4082 149.536 15.4082C149.751 15.4082 149.941 15.4236 150.115 15.4594C150.289 15.485 150.442 15.5157 150.58 15.5566L150.754 18.699C150.575 18.6427 150.365 18.6018 150.13 18.5762C149.895 18.5455 149.644 18.525 149.383 18.525C148.549 18.525 147.837 18.7093 147.244 19.0777C146.66 19.4462 146.23 19.9683 145.954 20.6387H145.949ZM142.888 27.64V15.5924H145.887L145.754 19.2876L146.036 19.4002V27.64H142.893H142.888Z" fill="white"/>
<path d="M159.788 27.6393L155.831 22.332H154.762V20.2797H155.842L159.649 15.5866H163.283L158.396 21.5183V20.8785L163.467 27.6342H159.782L159.788 27.6393ZM152.049 27.6393V11.4053H155.181V27.6444H152.049V27.6393Z" fill="white"/>
<path d="M167.939 5.50189V2.74928H169.334C169.446 2.74928 169.567 2.7816 169.699 2.84626C169.831 2.90842 169.943 3.00539 170.035 3.13718C170.129 3.26648 170.177 3.43059 170.177 3.62952C170.177 3.83093 170.128 4.0025 170.031 4.14423C169.934 4.28348 169.816 4.38916 169.677 4.46127C169.54 4.53338 169.411 4.56943 169.289 4.56943H168.282V4.12186H169.102C169.185 4.12186 169.273 4.08083 169.367 3.99877C169.464 3.91672 169.513 3.79363 169.513 3.62952C169.513 3.46043 169.464 3.34605 169.367 3.28637C169.273 3.2267 169.19 3.19686 169.117 3.19686H168.543V5.50189H167.939ZM169.602 4.20391L170.289 5.50189H169.625L168.953 4.20391H169.602ZM168.983 7.14301C168.57 7.14301 168.184 7.06593 167.823 6.91177C167.463 6.7576 167.146 6.54376 166.872 6.27024C166.599 5.99671 166.385 5.67968 166.231 5.31913C166.076 4.95858 165.999 4.57192 165.999 4.15915C165.999 3.74639 166.076 3.35973 166.231 2.99918C166.385 2.63863 166.599 2.32159 166.872 2.04807C167.146 1.77455 167.463 1.56071 167.823 1.40654C168.184 1.25238 168.57 1.17529 168.983 1.17529C169.396 1.17529 169.783 1.25238 170.143 1.40654C170.504 1.56071 170.821 1.77455 171.094 2.04807C171.368 2.32159 171.582 2.63863 171.736 2.99918C171.89 3.35973 171.967 3.74639 171.967 4.15915C171.967 4.57192 171.89 4.95858 171.736 5.31913C171.582 5.67968 171.368 5.99671 171.094 6.27024C170.821 6.54376 170.504 6.7576 170.143 6.91177C169.783 7.06593 169.396 7.14301 168.983 7.14301ZM168.983 6.42689C169.401 6.42689 169.781 6.32494 170.124 6.12104C170.468 5.91715 170.741 5.64362 170.945 5.30048C171.149 4.95734 171.251 4.57689 171.251 4.15915C171.251 3.74141 171.149 3.36097 170.945 3.01783C170.741 2.67468 170.468 2.40116 170.124 2.19727C169.781 1.99337 169.401 1.89142 168.983 1.89142C168.565 1.89142 168.185 1.99337 167.842 2.19727C167.499 2.40116 167.225 2.67468 167.021 3.01783C166.817 3.36097 166.715 3.74141 166.715 4.15915C166.715 4.57689 166.817 4.95734 167.021 5.30048C167.225 5.64362 167.499 5.91715 167.842 6.12104C168.185 6.32494 168.565 6.42689 168.983 6.42689Z" fill="white"/>
<path fill-rule="evenodd" clip-rule="evenodd" d="M35.618 0L26.6609 16.1036H17.9447L27.0924 0H35.618ZM17.8762 16.2243L22.235 24.0608L17.8089 32.0185H8.90437L17.8762 16.2243ZM0 0.000167994L8.95766 16.1049H17.6739L8.52563 0.000167994H0Z" fill="white"/>
</svg>
