<?xml version="1.0" encoding="UTF-8"?>
<svg width="1600px" height="140px" viewBox="0 0 1600 140" version="1.1" xmlns="http://www.w3.org/2000/svg" xmlns:xlink="http://www.w3.org/1999/xlink">
    <title>Group 15 Copy</title>
    <g id="Page-1" stroke="none" stroke-width="1" fill="none" fill-rule="evenodd">
        <g id="NAKAMOTO" transform="translate(0.000000, -5326.000000)" fill="#EB2F2F">
            <g id="Group-15-Copy" transform="translate(800.000000, 5396.000000) rotate(-180.000000) translate(-800.000000, -5396.000000) translate(0.000000, 5326.000000)">
                <path d="M168,88.6301351 C173.522847,88.6301351 178,84.1529826 178,78.6301351 L178,78.6301351 L178,54.3037975 C178,48.78095 182.477153,44.3037975 188,44.3037975 L188,44.3037975 L212.5,44.3037975 C218.022847,44.3037975 222.5,39.826645 222.5,34.3037975 L222.5,34.3037975 L222.5,10 C222.5,4.4771525 226.977153,1.8130696e-12 232.5,1.8189894e-12 L232.5,1.8189894e-12 L267,1.8189894e-12 L267,140 L0,140 L0,1.8189894e-12 L34.5,1.8189894e-12 C40.0228475,1.8130696e-12 44.5,4.4771525 44.5,10 L44.5,34.3037975 C44.5,39.826645 48.9771525,44.3037975 54.5,44.3037975 L79,44.3037975 C84.5228475,44.3037975 89,48.78095 89,54.3037975 L89,78.6301351 C89,84.1529826 93.4771525,88.6301351 99,88.6301351 Z" id="Combined-Shape"></path>
                <path d="M434,88.6301351 C439.522847,88.6301351 444,84.1529826 444,78.6301351 L444,78.6301351 L444,54.3037975 C444,48.78095 448.477153,44.3037975 454,44.3037975 L454,44.3037975 L478.5,44.3037975 C484.022847,44.3037975 488.5,39.826645 488.5,34.3037975 L488.5,34.3037975 L488.5,10 C488.5,4.4771525 492.977153,-5.91980459e-15 498.5,0 L498.5,0 L533,0 L533,140 L266,140 L266,0 L300.5,0 C306.022847,-5.91980459e-15 310.5,4.4771525 310.5,10 L310.5,34.3037975 C310.5,39.826645 314.977153,44.3037975 320.5,44.3037975 L345,44.3037975 C350.522847,44.3037975 355,48.78095 355,54.3037975 L355,78.6301351 C355,84.1529826 359.477153,88.6301351 365,88.6301351 Z" id="Combined-Shape-Copy"></path>
                <path d="M701,88.6301351 C706.522847,88.6301351 711,84.1529826 711,78.6301351 L711,78.6301351 L711,54.3037975 C711,48.78095 715.477153,44.3037975 721,44.3037975 L721,44.3037975 L745.5,44.3037975 C751.022847,44.3037975 755.5,39.826645 755.5,34.3037975 L755.5,34.3037975 L755.5,10 C755.5,4.4771525 759.977153,-5.91980459e-15 765.5,0 L765.5,0 L800,0 L800,140 L533,140 L533,0 L567.5,0 C573.022847,-5.91980459e-15 577.5,4.4771525 577.5,10 L577.5,34.3037975 C577.5,39.826645 581.977153,44.3037975 587.5,44.3037975 L612,44.3037975 C617.522847,44.3037975 622,48.78095 622,54.3037975 L622,78.6301351 C622,84.1529826 626.477153,88.6301351 632,88.6301351 Z" id="Combined-Shape-Copy-2"></path>
                <path d="M968,88.6301351 C973.522847,88.6301351 978,84.1529826 978,78.6301351 L978,78.6301351 L978,54.3037975 C978,48.78095 982.477153,44.3037975 988,44.3037975 L988,44.3037975 L1012.5,44.3037975 C1018.02285,44.3037975 1022.5,39.826645 1022.5,34.3037975 L1022.5,34.3037975 L1022.5,10 C1022.5,4.4771525 1026.97715,-5.91980459e-15 1032.5,0 L1032.5,0 L1067,0 L1067,140 L800,140 L800,0 L834.5,0 C840.022847,-5.91980459e-15 844.5,4.4771525 844.5,10 L844.5,34.3037975 C844.5,39.826645 848.977153,44.3037975 854.5,44.3037975 L879,44.3037975 C884.522847,44.3037975 889,48.78095 889,54.3037975 L889,78.6301351 C889,84.1529826 893.477153,88.6301351 899,88.6301351 Z" id="Combined-Shape-Copy-3"></path>
                <path d="M1234,88.6301351 C1239.52285,88.6301351 1244,84.1529826 1244,78.6301351 L1244,78.6301351 L1244,54.3037975 C1244,48.78095 1248.47715,44.3037975 1254,44.3037975 L1254,44.3037975 L1278.5,44.3037975 C1284.02285,44.3037975 1288.5,39.826645 1288.5,34.3037975 L1288.5,34.3037975 L1288.5,10 C1288.5,4.4771525 1292.97715,-5.91980459e-15 1298.5,0 L1298.5,0 L1333,0 L1333,140 L1066,140 L1066,0 L1100.5,0 C1106.02285,-5.91980459e-15 1110.5,4.4771525 1110.5,10 L1110.5,34.3037975 C1110.5,39.826645 1114.97715,44.3037975 1120.5,44.3037975 L1145,44.3037975 C1150.52285,44.3037975 1155,48.78095 1155,54.3037975 L1155,78.6301351 C1155,84.1529826 1159.47715,88.6301351 1165,88.6301351 Z" id="Combined-Shape-Copy-4"></path>
                <path d="M1501,88.6301351 C1506.52285,88.6301351 1511,84.1529826 1511,78.6301351 L1511,78.6301351 L1511,54.3037975 C1511,48.78095 1515.47715,44.3037975 1521,44.3037975 L1521,44.3037975 L1545.5,44.3037975 C1551.02285,44.3037975 1555.5,39.826645 1555.5,34.3037975 L1555.5,34.3037975 L1555.5,10 C1555.5,4.4771525 1559.97715,-5.91980459e-15 1565.5,0 L1565.5,0 L1600,0 L1600,140 L1333,140 L1333,0 L1367.5,0 C1373.02285,-5.91980459e-15 1377.5,4.4771525 1377.5,10 L1377.5,34.3037975 C1377.5,39.826645 1381.97715,44.3037975 1387.5,44.3037975 L1412,44.3037975 C1417.52285,44.3037975 1422,48.78095 1422,54.3037975 L1422,78.6301351 C1422,84.1529826 1426.47715,88.6301351 1432,88.6301351 Z" id="Combined-Shape-Copy-5"></path>
            </g>
        </g>
    </g>
</svg>